<?xml version="1.0" encoding="UTF-8"?>
<svg width="24px" height="24px" viewBox="0 0 24 24" version="1.1" xmlns="http://www.w3.org/2000/svg">
    <g stroke="none" stroke-width="1" fill="none" fill-rule="evenodd">
        <path d="M19,3 C20.1045695,3 21,3.8954305 21,5 L21,19 C21,20.1045695 20.1045695,21 19,21 L5,21 C3.8954305,21 3,20.1045695 3,19 L3,5 C3,3.8954305 3.8954305,3 5,3 L19,3 Z M18.5,18.5 L15.5,18.5 L15.5,13.5 C15.5,12.5 15.5,11.5 14.5,11.5 C13.5,11.5 13,12.5 13,13.5 L13,18.5 L10,18.5 L10,9.5 L13,9.5 L13,10.5 C13.5,9.5 14.5,8.5 16,8.5 C19,8.5 19,10.5 19,13.5 L19,18.5 L18.5,18.5 Z M6.5,8.5 C7.5,8.5 8.5,7.5 8.5,6.5 C8.5,5.5 7.5,4.5 6.5,4.5 C5.5,4.5 4.5,5.5 4.5,6.5 C4.5,7.5 5.5,8.5 6.5,8.5 Z M8,18.5 L5,18.5 L5,9.5 L8,9.5 L8,18.5 Z" fill="#0A66C2"/>
    </g>
</svg> 